<svg xmlns="http://www.w3.org/2000/svg" xmlns:xlink="http://www.w3.org/1999/xlink" width="424.771" height="102.9" viewBox="0 0 4128 1000">
  <defs>
    <style>
      .cls-1 {
        filter: url(#filter);
      }

      .cls-2 {
        fill: #bf76e1;
        fill-rule: evenodd;
      }
    </style>
    <filter id="filter" filterUnits="userSpaceOnUse">
      <feFlood result="flood" flood-color="#fff"/>
      <feComposite result="composite" operator="in" in2="SourceGraphic"/>
      <feBlend result="blend" in2="SourceGraphic"/>
    </filter>
  </defs>
  <g id="Group_3_copy_2" data-name="Group 3 copy 2" class="cls-1">
    <path class="cls-2" d="M478.54,14.29c37.24,5.2,45.354,28.448,70.006,43.8C618.457,115.138,687.1,173.454,758.513,231.976c36.246,27.234,68.835,58.125,107.307,85.853,30.956,33.9,74.132,51.328,95.873,99.906-3.7,18.466-20.66,25.595-49.3,28.648-66.726,12.428-135.705,22.407-204.065,37.385-2.82,65.6-.1,136.742-1.16,207.077,0,33.714,0,67.429-1.368,103.784,10.712,38.649-43.288,48.307-55.182,18.183V616.475c0-31.732,0-63.463-.488-99.065,3.79-25.944-8.277-72.312,18.346-84.793,58.534-10.623,117.068-22.373,178.578-30.329,1.984-6.445,8.432.5,8.928-8.924,3.473-2.975-6.448-5.95-4.765-10.111C743.025,294.062,634.432,205.272,522.638,116.706c-1.984.992-8.433-2.479-8.929,5.95v437.3c0,108.085,0,216.17.416,328.242-3.878,32.518,11.189,92.952-28.578,98.531-28.628-6.092-41.908-27.525-64.305-42.82C284.334,829.87,145.769,717.491,8.121,599.284c-9.379-56.352,64.109-37.257,103.789-53.63,44.644-9.206,89.289-16.4,136.909-24.373,1.985-6.446,8.433.5,10.716-4.164,2.887-63.551.1-132.77,0.111-202.011,6.5-44.349-9.16-105.686,10.887-140.457,52.305-23.337,49.654,28.887,46.741,67V411.213c0,27.764,0,55.529.466,86.735-3.753,24.014,8.418,63.943-15.494,69.89-61.719,12.418-125.839,21.8-187.36,36.737a84.147,84.147,0,0,0,.624,11.276c110.423,90.927,220.918,181.783,335.7,271.332,6.449,3.47-.5-6.446,5.953-5.95,0-280.624,0-561.248-.63-845.035C463.515,23.511,465.112,21.915,478.54,14.29Z"/>
    <path id="Point" class="cls-2" d="M1473.13,10.563H1278.11L1190.32,449.5h147.99l21.32-107.853h75.87c134.82,0,221.99-74.62,221.99-185.608C1657.49,64.489,1591.02,10.563,1473.13,10.563Zm-30.1,216.96H1382.2l20.7-102.837h49.53c33.87,0,55.19,13.168,55.19,44.521C1507.62,206.2,1483.79,227.523,1443.03,227.523Zm460.26,232.01c161.16,0,276.55-107.853,276.55-262.736C2179.84,81.42,2093.93.53,1957.22,0.53c-161.16,0-276.54,107.853-276.54,262.735C1680.68,378.643,1766.59,459.533,1903.29,459.533Zm12.55-119.768c-53.93,0-85.91-34.487-85.91-85.279,0-72.111,42.01-134.189,114.75-134.189,53.93,0,85.91,34.488,85.91,85.279C2030.59,277.687,1988.58,339.765,1915.84,339.765ZM2187.98,449.5h147.99l87.79-438.937H2275.77ZM2783.7,10.563l-40.76,204.419L2616.9,10.563H2495.24L2407.45,449.5h144.23l40.76-204.42L2718.48,449.5h121.66l87.79-438.937H2783.7ZM3006.93,449.5h147.99l64.59-324.187h128.55l23.2-114.75H2966.17l-23.2,114.75h128.55Z"/>
    <path id="Portal" class="cls-2" d="M1685.23,551.607H1490.2l-87.79,438.937H1550.4l21.32-107.853h75.88c134.82,0,221.99-74.619,221.99-185.608C1869.59,605.534,1803.12,551.607,1685.23,551.607Zm-30.1,216.96H1594.3l20.69-102.836h49.54c33.86,0,55.18,13.168,55.18,44.52C1719.71,747.248,1695.89,768.567,1655.13,768.567Zm460.26,232.013c161.16,0,276.54-107.856,276.54-262.738,0-115.378-85.91-196.268-222.61-196.268-161.16,0-276.54,107.853-276.54,262.735C1892.78,919.687,1978.69,1000.58,2115.39,1000.58Zm12.54-119.77c-53.92,0-85.91-34.488-85.91-85.279,0-72.111,42.02-134.19,114.76-134.19,53.93,0,85.91,34.488,85.91,85.28C2242.69,818.732,2200.68,880.81,2127.93,880.81Zm739.32-184.981c0-90.922-66.47-144.222-182.48-144.222h-196.9l-87.79,438.937h147.99l21.94-110.361h36.38l62.08,110.361H2822.1l-73.37-127.919C2823.35,834.408,2867.25,774.211,2867.25,695.829Zm-149.87,14.422c0,37-23.83,58.316-64.59,58.316h-60.83l20.7-102.836h49.54C2696.06,665.731,2717.38,678.9,2717.38,710.251Zm238.91,280.293h147.99l64.59-324.186h128.55l23.2-114.751H2915.53l-23.21,114.751h128.56Zm627.07,0h147.36L3626.63,551.607H3481.14L3201.47,990.544h156.14l43.89-76.5h167.43Zm-121.03-183.1L3526.92,695.2l21.32,112.243h-85.91Zm292.21,183.1h346.15l23.2-114.751H3925.73l64.59-324.186H3842.33Z"/>
  </g>
</svg>
