<svg xmlns="http://www.w3.org/2000/svg" xmlns:xlink="http://www.w3.org/1999/xlink" width="828.219" height="843.875" viewBox="0 0 828.219 843.875">
  <defs>
    <style>
      .cls-1 {
        fill-rule: evenodd;
        fill: url(#linear-gradient);
      }
    </style>
    <linearGradient id="linear-gradient" x1="72.406" y1="499.5" x2="900.625" y2="499.5" gradientUnits="userSpaceOnUse">
      <stop offset="0" stop-color="#bf76e1"/>
      <stop offset="1" stop-color="#9d57ff"/>
    </linearGradient>
  </defs>
  <path id="Shape_1_copy" data-name="Shape 1 copy" class="cls-1" d="M481.33,77.563c32.318,4.51,39.359,24.688,60.752,38.008,60.669,49.509,120.238,100.116,182.211,150.9,31.455,23.634,59.735,50.441,93.122,74.5,26.864,29.417,64.332,44.543,83.2,86.7-3.211,16.025-17.93,22.212-42.784,24.861-57.9,10.785-117.765,19.445-177.089,32.443-2.447,56.929-.086,118.666-1.007,179.7,0,29.258,0,58.515-1.187,90.065,9.3,33.539-37.566,41.921-47.887,15.779V600.144c0-27.537,0-55.074-.423-85.969,3.288-22.514-7.183-62.753,15.92-73.585,50.8-9.218,101.592-19.415,154.971-26.319,1.722-5.593,7.318.43,7.749-7.745,3.013-2.581-5.6-5.163-4.136-8.774C710.852,320.351,616.614,243.3,519.6,166.441c-1.722.86-7.318-2.152-7.749,5.163v379.49c0,93.8,0,187.594.361,284.851-3.365,28.219,9.71,80.665-24.8,85.506-24.844-5.287-36.368-23.886-55.8-37.16C312.8,785.33,192.549,687.806,73.1,585.225c-8.139-48.9,55.634-32.331,90.069-46.54,38.742-7.989,77.485-14.235,118.811-21.151,1.722-5.594,7.318.43,9.3-3.613,2.506-55.151.091-115.22,0.1-175.307,5.638-38.487-7.949-91.716,9.448-121.89,45.39-20.252,43.09,25.068,40.562,58.142v147.15c0,24.094,0,48.189.4,75.269-3.257,20.84,7.305,55.491-13.446,60.652-53.56,10.776-109.2,18.914-162.592,31.88a73.1,73.1,0,0,0,.541,9.786C262.116,678.51,358,757.355,457.61,835.066c5.6,3.012-.43-5.593,5.166-5.163,0-243.528,0-487.055-.546-733.328C468.291,85.565,469.677,84.18,481.33,77.563Z" transform="translate(-72.406 -77.563)"/>
</svg>
